
<svg width="26px" height="27px" viewBox="0 0 26 27" version="1.1" xmlns="http://www.w3.org/2000/svg" xmlns:xlink="http://www.w3.org/1999/xlink">
    <!-- Generator: Sketch 48.2 (47327) - http://www.bohemiancoding.com/sketch -->
    <desc>Created with Sketch.</desc>
    <defs></defs>
    <g id="Product-Cards" stroke="none" stroke-width="1" fill="none" fill-rule="evenodd">
        <g id="Web-Product-Card---Add-Item-Explorations" transform="translate(-1198.000000, -858.000000)" fill="#4B4A4B">
            <g id="Page-1-Copy-17" transform="translate(1198.000000, 858.000000)">
                <path d="M13.175,0 C14.877,0 16.257,1.38 16.257,3.082 C16.257,4.784 14.877,6.164 13.175,6.164 C11.473,6.164 10.093,4.784 10.093,3.082 C10.093,1.38 11.473,0 13.175,0" id="Fill-1"></path>
                <path d="M13.175,22.6523 C14.196,22.6523 15.024,23.4793 15.024,24.5013 C15.024,25.5223 14.196,26.3493 13.175,26.3493 C12.154,26.3493 11.326,25.5223 11.326,24.5013 C11.326,23.4793 12.154,22.6523 13.175,22.6523" id="Fill-3"></path>
                <path d="M5.6022,3.4438 C7.1342,3.4438 8.3762,4.6858 8.3762,6.2178 C8.3762,7.7498 7.1342,8.9918 5.6022,8.9918 C4.0702,8.9918 2.8282,7.7498 2.8282,6.2178 C2.8282,4.6858 4.0702,3.4438 5.6022,3.4438" id="Fill-5"></path>
                <path d="M20.7482,19.8223 C21.5992,19.8223 22.2892,20.5113 22.2892,21.3633 C22.2892,22.2143 21.5992,22.9043 20.7482,22.9043 C19.8962,22.9043 19.2072,22.2143 19.2072,21.3633 C19.2072,20.5113 19.8962,19.8223 20.7482,19.8223" id="Fill-7"></path>
                <path d="M2.465,11.3271 C3.826,11.3271 4.93,12.4311 4.93,13.7921 C4.93,15.1531 3.826,16.2571 2.465,16.2571 C1.104,16.2571 0,15.1531 0,13.7921 C0,12.4311 1.104,11.3271 2.465,11.3271" id="Fill-9"></path>
                <path d="M23.884,12.5591 C24.565,12.5591 25.116,13.1101 25.116,13.7911 C25.116,14.4721 24.565,15.0231 23.884,15.0231 C23.203,15.0231 22.652,14.4721 22.652,13.7911 C22.652,13.1101 23.203,12.5591 23.884,12.5591" id="Fill-11"></path>
                <path d="M4.0768,19.8398 C3.2338,20.6828 3.2338,22.0468 4.0768,22.8898 C4.9188,23.7338 6.2848,23.7338 7.1268,22.8898 C7.9698,22.0468 7.9698,20.6828 7.1268,19.8398 C6.2848,18.9958 4.9198,18.9878 4.0768,19.8398" id="Fill-13"></path>
                <path d="M20.7473,5.2939 C21.2573,5.2939 21.6713,5.7079 21.6713,6.2179 C21.6713,6.7289 21.2573,7.1419 20.7473,7.1419 C20.2363,7.1419 19.8233,6.7289 19.8233,6.2179 C19.8233,5.7079 20.2363,5.2939 20.7473,5.2939" id="Fill-15"></path>
            </g>
        </g>
    </g>
</svg>